Coordinates
version=1
nRows=16
nColumns=40
inDegrees=yes

Units are S.I. units (second, meters, Newtons, ...)
Angles are in degrees.

endheader
time	pelvis_tilt	pelvis_list	pelvis_rotation	pelvis_tx	pelvis_ty	pelvis_tz	hip_flexion_r	hip_adduction_r	hip_rotation_r	knee_angle_r	knee_angle_r_beta	ankle_angle_r	subtalar_angle_r	mtp_angle_r	hip_flexion_l	hip_adduction_l	hip_rotation_l	knee_angle_l	knee_angle_l_beta	ankle_angle_l	subtalar_angle_l	mtp_angle_l	lumbar_extension	lumbar_bending	lumbar_rotation	arm_flex_r	arm_add_r	arm_rot_r	elbow_flex_r	pro_sup_r	wrist_flex_r	wrist_dev_r	arm_flex_l	arm_add_l	arm_rot_l	elbow_flex_l	pro_sup_l	wrist_flex_l	wrist_dev_l
     50.45000000	     -5.31562687	     -8.16810220	      2.24871349	      0.93342839	      0.92507852	      0.49863938	     11.11956834	      7.07860403	    -13.85686850	     15.39158167	     15.39158167	     11.54351392	     -3.00960032	     -2.33910152	     44.48547395	    -14.34459102	      4.65763143	     67.68838911	     67.68838911	      7.94702883	    -19.56076899	     22.72330940	    -12.01539825	      6.28165572	      3.82304088	     25.85854543	    -18.12028726	     13.84242583	     57.17173462	     44.71325057	      0.00000000	      0.00000000	      6.99501951	     -7.78378754	     -3.96469730	     28.91630339	     47.23160015	      0.00000000	      0.00000000
     50.46085714	     -5.39462952	     -8.10006892	      2.38713973	      0.93260130	      0.92493496	      0.49796814	     10.55610551	      6.97171781	    -14.09670020	     15.09789569	     15.09789569	     11.83908621	     -2.50881149	     -2.55659938	     45.09572207	    -13.92657563	      4.68811998	     65.59915329	     65.59915329	      7.89609010	    -19.52533664	     22.01564160	    -11.96680654	      6.16032873	      4.10061041	     27.61089352	    -19.09936623	     14.74235309	     60.01415059	     44.62360074	      0.00000000	      0.00000000	      6.76886262	     -7.51295627	     -3.98432212	     25.19035154	     47.19478547	      0.00000000	      0.00000000
     50.47171429	     -5.47287032	     -8.03007720	      2.51898911	      0.93182786	      0.92475230	      0.49716950	      9.98208384	      6.88335171	    -14.20820238	     14.78162963	     14.78162963	     12.12522209	     -2.26175955	     -2.62760372	     45.56913317	    -13.45520211	      4.77618570	     63.31477345	     63.31477345	      7.98993231	    -19.47301167	     21.78388860	    -11.91929568	      6.03014708	      3.80828124	     29.78746123	    -19.03670934	     14.45988623	     61.81129066	     44.59410211	      0.00000000	      0.00000000	      5.37896432	     -7.56132593	     -3.97358059	     23.90504274	     47.15771720	      0.00000000	      0.00000000
     50.48257143	     -5.58874030	     -7.89681607	      2.58361890	      0.93104809	      0.92453772	      0.49626444	      9.47135349	      6.70965537	    -14.25255657	     14.52544611	     14.52544611	     12.44167476	     -1.91452533	     -2.73350763	     45.89320219	    -12.91974056	      4.85924915	     60.79940655	     60.79940655	      8.02036671	    -19.38084653	     21.48831327	    -11.87529871	      5.83960175	      3.82007325	     31.82867074	    -19.15441460	     14.25296127	     63.35794393	     44.56554882	      0.00000000	      0.00000000	      4.13910633	     -7.57239273	     -3.92796981	     22.95282196	     47.12055076	      0.00000000	      0.00000000
     50.49342857	     -5.73728073	     -7.84287274	      2.63264427	      0.93038020	      0.92414649	      0.49522873	      8.98644735	      6.55477440	    -14.66915329	     14.29522299	     14.29522299	     12.82628496	     -1.00864374	     -2.86335718	     46.06877343	    -12.45412254	      5.04234707	     58.00684332	     58.00684332	      7.52822509	    -19.27252295	     19.52330482	    -11.82301351	      5.75103192	      4.01600363	     33.49482298	    -19.91690636	     14.67305649	     66.15178478	     44.50083464	      0.00000000	      0.00000000	      2.99727282	     -7.50689376	     -3.62273650	     21.93919384	     47.00128289	      0.00000000	      0.00000000
     50.50428571	     -5.88051728	     -7.75755053	      2.66611033	      0.92981349	      0.92378334	      0.49408122	      8.46465900	      6.42298418	    -14.74264309	     13.99210539	     13.99210539	     13.12881441	     -0.63944447	     -2.90588131	     46.11104750	    -11.91878822	      5.31447343	     55.10399023	     55.10399023	      7.56734617	    -19.07069702	     19.06456511	    -11.74453748	      5.64312595	      3.92032829	     35.44844565	    -19.84153343	     14.27540979	     67.71269630	     44.48282445	      0.00000000	      0.00000000	      1.56715739	     -7.51196842	     -3.50276867	     21.43766555	     46.93438526	      0.00000000	      0.00000000
     50.51514286	     -6.01755830	     -7.65912741	      2.65532114	      0.92941532	      0.92342572	      0.49286332	      7.91404064	      6.26069188	    -14.90488105	     13.67942686	     13.67942686	     13.44826747	     -0.08154442	     -2.96470772	     45.93446984	    -11.42410911	      5.57708328	     51.96420332	     51.96420332	      7.57652057	    -18.75095990	     18.38327764	    -11.65968862	      5.51171176	      3.91609728	     37.24537906	    -19.82484029	     13.91538559	     69.30353215	     44.46012931	      0.00000000	      0.00000000	      0.12642072	     -7.52364165	     -3.38453013	     21.25811044	     46.86333400	      0.00000000	      0.00000000
     50.52600000	     -6.18809845	     -7.66530252	      2.64619341	      0.92922006	      0.92281053	      0.49154618	      7.40053257	      6.14413500	    -15.42554170	     13.42825614	     13.42825614	     13.94060250	      1.10983411	     -2.84324580	     45.59361647	    -11.13259514	      5.77860526	     48.52238778	     48.52238778	      6.58185680	    -18.33401966	     14.74061160	    -11.57383644	      5.52695327	      4.17389431	     38.59573901	    -20.24910682	     13.44747543	     71.87900653	     44.44478948	      0.00000000	      0.00000000	     -1.89250009	     -7.64816749	     -2.55909557	     22.97091153	     46.56388366	      0.00000000	      0.00000000
     50.53685714	     -6.31710264	     -7.63552082	      2.61227997	      0.92918867	      0.92227542	      0.49016585	      6.77501721	      6.08699957	    -15.40897877	     13.01932238	     13.01932238	     14.20554902	      1.45420056	     -2.83147938	     45.13579223	    -10.80424484	      6.04351598	     45.18601258	     45.18601258	      6.90652578	    -17.51707241	     14.50977536	    -11.46208163	      5.48805726	      4.15842271	     40.29134176	    -20.07315505	     12.99920950	     73.08647965	     44.43744719	      0.00000000	      0.00000000	     -3.31237103	     -7.59694167	     -2.29346496	     22.75843702	     46.47044736	      0.00000000	      0.00000000
     50.54771429	     -6.39644973	     -7.63416696	      2.56538853	      0.92950838	      0.92168107	      0.48870774	      6.03025861	      6.05071631	    -15.53665835	     12.54273458	     12.54273458	     14.53450793	      2.06954205	     -2.84102460	     44.47742612	    -10.63667705	      6.09961947	     41.77913372	     41.77913372	      7.18711946	    -16.42655727	     14.13679656	    -11.35037875	      5.50243579	      4.14333440	     41.78210157	    -19.83833180	     12.50917459	     74.50844162	     44.42365163	      0.00000000	      0.00000000	     -4.90407887	     -7.59135980	     -2.04046947	     22.93195235	     46.36988844	      0.00000000	      0.00000000
     50.55857143	     -6.48229213	     -7.76625023	      2.55616408	      0.93013142	      0.92080429	      0.48711274	      5.20417917	      6.13260505	    -15.98681506	     11.94338901	     11.94338901	     14.91401829	      3.22044854	     -2.71058916	     43.74615528	    -10.62109924	      6.14696289	     38.40385921	     38.40385921	      7.15683408	    -15.25231791	     12.84647683	    -11.25105814	      5.70596580	      4.07595943	     43.01619702	    -19.53131057	     11.59717565	     76.66671763	     44.41651888	      0.00000000	      0.00000000	     -7.07768013	     -7.66518134	     -1.27117231	     24.68156227	     46.12564956	      0.00000000	      0.00000000
     50.56942857	     -6.54916623	     -7.75548333	      2.46213779	      0.93100023	      0.91988171	      0.48549050	      4.46432364	      6.07983544	    -15.92214463	     11.57940569	     11.57940569	     15.29767026	      3.57896439	     -2.71635858	     42.83797129	    -10.56605875	      5.90796546	     35.12536572	     35.12536572	      7.40023220	    -14.13082784	     12.88171218	    -11.05887111	      5.70657406	      4.22063708	     44.21161830	    -19.40985092	     11.10829344	     77.72585826	     44.41404004	      0.00000000	      0.00000000	     -8.58943321	     -7.62908128	     -0.89435788	     24.93837327	     46.01416593	      0.00000000	      0.00000000
     50.58028571	     -6.55080464	     -7.88958368	      2.41228035	      0.93222226	      0.91874236	      0.48376616	      3.55871723	      6.19116557	    -16.03126314	     11.08627517	     11.08627517	     15.87479403	      4.27477071	     -2.10749873	     41.83018949	    -10.65461479	      5.61887393	     32.02264380	     32.02264380	      6.98526675	    -13.23466085	     11.53783274	    -10.95240312	      5.90555056	      4.30617724	     45.17297232	    -19.07938252	     10.00365584	     79.50544918	     44.56074405	      0.00000000	      0.00000000	    -11.33244362	     -8.72403301	      5.55022393	     28.32769167	     44.85658412	      0.00000000	      0.00000000
     50.59114286	     -6.62567960	     -7.93547555	      2.30008480	      0.93361936	      0.91739282	      0.48192864	      2.77544421	      6.18627887	    -15.96673316	     10.68641004	     10.68641004	     16.23510135	      4.65785224	     -2.22410482	     40.89379949	    -10.69882187	      5.08788588	     29.33064613	     29.33064613	      7.08586675	    -12.33098829	     12.10470781	    -10.65020991	      5.99208542	      4.37587434	     46.11288396	    -18.80255474	      9.61523595	     80.56056370	     44.55014544	      0.00000000	      0.00000000	    -12.70369946	     -8.52858958	      5.64686669	     28.13757609	     44.82594687	      0.00000000	      0.00000000
     50.60200000	     -6.61864585	     -8.05919468	      2.24396355	      0.93533725	      0.91589920	      0.47991340	      1.79240711	      6.26548383	    -16.11084734	     10.11984088	     10.11984088	     16.62893076	      5.39419232	     -2.20394764	     39.98214078	    -10.79547118	      4.49129519	     27.17017692	     27.17017692	      7.06688059	    -11.63670639	     12.61986590	    -10.46509906	      6.19909931	      4.30626854	     46.73779637	    -18.22273905	      8.52887115	     82.46861240	     44.54867806	      0.00000000	      0.00000000	    -14.41994171	     -8.42828939	      5.76578519	     28.83849431	     44.79848648	      0.00000000	      0.00000000
     50.61285714	     -6.62391004	     -8.05912587	      2.12766391	      0.93716012	      0.91429427	      0.47783607	      0.98897135	      6.17835522	    -15.93440009	      9.89569679	      9.89569679	     17.10728911	      5.57263251	     -2.23253342	     39.07323668	    -10.80982440	      3.67558212	     25.40321141	     25.40321141	      6.77440890	    -11.22359527	     13.00269276	    -10.20039047	      6.23175651	      4.29506082	     47.41115922	    -17.83693927	      8.04799606	     83.54960974	     44.54067107	      0.00000000	      0.00000000	    -15.78296843	     -8.25882583	      5.85519979	     28.77195781	     44.77157287	      0.00000000	      0.00000000
